<svg width="254" height="157" viewBox="0 0 254 157" fill="none" xmlns="http://www.w3.org/2000/svg">
<rect width="254" height="157" rx="20" fill="white" fill-opacity="0.3"/>
<path d="M73.68 102.48V99.44C73.68 91.12 82.64 86.56 96.72 86.56C110.8 86.56 119.76 91.2 119.76 99.44V102.48C119.76 110.72 110.8 115.36 96.72 115.36C82.64 115.36 73.68 110.8 73.68 102.48ZM111.68 58.32V39.44H119.28V85.12H111.68V65.12H104.48V82H96.96V40.4H104.48V58.32H111.68ZM74.96 83.6C65.44 83.6 59.6 78.16 59.6 72V68.96C59.6 62.72 65.44 57.36 74.96 57.36C84.48 57.36 90.32 62.72 90.32 68.96V72C90.32 78.16 84.48 83.6 74.96 83.6ZM112 102V99.92C112 95.76 105.76 93.04 96.72 93.04C87.68 93.04 81.44 95.76 81.44 99.92V101.92C81.44 106.16 87.68 108.88 96.72 108.88C105.76 108.88 112 106.16 112 102ZM57.04 48H71.12V39.52H78.8V48H91.44V54.64H57.04V48ZM74.96 63.52C70 63.52 66.64 66.16 66.64 69.6V71.36C66.64 74.8 70 77.44 74.96 77.44C79.92 77.44 83.28 74.8 83.28 71.36V69.6C83.28 66.16 79.92 63.52 74.96 63.52ZM198.413 66.08V72.96H187.053V113.2H179.133V39.44H187.053V66.08H198.413ZM151.293 76.16H151.213C150.493 77.92 149.133 79.52 146.573 82.32C143.293 85.92 139.053 90.16 133.613 95.12L128.413 89.76C133.293 85.44 137.453 81.36 141.053 77.36C145.933 71.84 147.213 68.24 147.213 62.56V44.8H155.213V62.56C155.213 68.88 156.733 72.16 161.613 77.6C165.053 81.36 168.573 84.72 173.373 88.96L168.253 94.4C162.733 89.28 159.133 85.68 156.093 82.4C153.853 80 151.933 77.76 151.293 76.16Z" fill="#F9F9F9"/>
</svg>
