<svg width="697" height="99" viewBox="0 0 697 99" fill="none" xmlns="http://www.w3.org/2000/svg">
<rect x="542" y="12" width="155" height="72" rx="15" fill="white" fill-opacity="0.3"/>
<path d="M600.34 55.18C600.34 56.78 599.927 58.1267 599.1 59.22C598.273 60.2867 597.153 61.1 595.74 61.66C594.353 62.22 592.833 62.5 591.18 62.5H577.46V34.1H592.66C593.993 34.1 595.14 34.46 596.1 35.18C597.087 35.8733 597.833 36.78 598.34 37.9C598.873 38.9933 599.14 40.14 599.14 41.34C599.14 42.7 598.793 43.9933 598.1 45.22C597.407 46.4467 596.393 47.3533 595.06 47.94C596.687 48.42 597.967 49.2867 598.9 50.54C599.86 51.7933 600.34 53.34 600.34 55.18ZM594.78 54.14C594.78 53.42 594.633 52.78 594.34 52.22C594.047 51.6333 593.647 51.18 593.14 50.86C592.66 50.5133 592.1 50.34 591.46 50.34H582.98V57.82H591.18C591.847 57.82 592.447 57.66 592.98 57.34C593.54 56.9933 593.98 56.54 594.3 55.98C594.62 55.42 594.78 54.8067 594.78 54.14ZM582.98 38.82V45.98H590.34C590.953 45.98 591.513 45.8333 592.02 45.54C592.527 45.2467 592.927 44.8333 593.22 44.3C593.54 43.7667 593.7 43.1267 593.7 42.38C593.7 41.66 593.553 41.0333 593.26 40.5C592.993 39.9667 592.62 39.5533 592.14 39.26C591.687 38.9667 591.167 38.82 590.58 38.82H582.98ZM613.848 62.9C612.168 62.9 610.648 62.62 609.288 62.06C607.928 61.4733 606.768 60.6867 605.808 59.7C604.848 58.6867 604.101 57.54 603.568 56.26C603.061 54.9533 602.808 53.58 602.808 52.14C602.808 50.14 603.248 48.3133 604.128 46.66C605.034 45.0067 606.314 43.6867 607.968 42.7C609.648 41.6867 611.621 41.18 613.888 41.18C616.181 41.18 618.141 41.6867 619.768 42.7C621.394 43.6867 622.634 45.0067 623.488 46.66C624.368 48.2867 624.808 50.0467 624.808 51.94C624.808 52.26 624.794 52.5933 624.768 52.94C624.741 53.26 624.714 53.5267 624.688 53.74H608.488C608.594 54.8067 608.901 55.74 609.408 56.54C609.941 57.34 610.608 57.9533 611.408 58.38C612.234 58.78 613.114 58.98 614.048 58.98C615.114 58.98 616.114 58.7267 617.048 58.22C618.008 57.6867 618.661 56.9933 619.008 56.14L623.608 57.42C623.101 58.4867 622.368 59.4333 621.408 60.26C620.474 61.0867 619.368 61.74 618.088 62.22C616.808 62.6733 615.394 62.9 613.848 62.9ZM608.368 50.34H619.328C619.221 49.2733 618.914 48.3533 618.408 47.58C617.928 46.78 617.288 46.1667 616.488 45.74C615.688 45.2867 614.794 45.06 613.808 45.06C612.848 45.06 611.968 45.2867 611.168 45.74C610.394 46.1667 609.754 46.78 609.248 47.58C608.768 48.3533 608.474 49.2733 608.368 50.34ZM640.438 61.42C639.984 61.6067 639.438 61.82 638.798 62.06C638.158 62.3 637.464 62.4867 636.718 62.62C635.998 62.78 635.264 62.86 634.518 62.86C633.531 62.86 632.624 62.6867 631.798 62.34C630.971 61.9933 630.304 61.4467 629.798 60.7C629.318 59.9267 629.078 58.9267 629.078 57.7V45.66H626.318V41.54H629.078V34.74H634.438V41.54H638.838V45.66H634.438V55.9C634.464 56.62 634.664 57.14 635.038 57.46C635.411 57.78 635.878 57.94 636.438 57.94C636.998 57.94 637.544 57.8467 638.078 57.66C638.611 57.4733 639.038 57.3133 639.358 57.18L640.438 61.42ZM641.789 56.3C641.789 54.94 642.162 53.7533 642.909 52.74C643.682 51.7 644.749 50.9 646.109 50.34C647.469 49.78 649.029 49.5 650.789 49.5C651.669 49.5 652.562 49.5667 653.469 49.7C654.376 49.8333 655.162 50.0467 655.829 50.34V49.22C655.829 47.8867 655.429 46.86 654.629 46.14C653.856 45.42 652.696 45.06 651.149 45.06C650.002 45.06 648.909 45.26 647.869 45.66C646.829 46.06 645.736 46.6467 644.589 47.42L642.869 43.9C644.256 42.9933 645.669 42.3133 647.109 41.86C648.576 41.4067 650.109 41.18 651.709 41.18C654.696 41.18 657.016 41.9267 658.669 43.42C660.349 44.9133 661.189 47.0467 661.189 49.82V56.5C661.189 57.06 661.282 57.46 661.469 57.7C661.682 57.94 662.016 58.0867 662.469 58.14V62.5C661.989 62.58 661.549 62.6467 661.149 62.7C660.776 62.7533 660.456 62.78 660.189 62.78C659.122 62.78 658.309 62.54 657.749 62.06C657.216 61.58 656.882 60.9933 656.749 60.3L656.629 59.22C655.722 60.3933 654.589 61.3 653.229 61.94C651.869 62.58 650.482 62.9 649.069 62.9C647.682 62.9 646.429 62.62 645.309 62.06C644.216 61.4733 643.349 60.6867 642.709 59.7C642.096 58.6867 641.789 57.5533 641.789 56.3ZM654.829 57.38C655.122 57.06 655.362 56.74 655.549 56.42C655.736 56.1 655.829 55.8067 655.829 55.54V53.42C655.189 53.1533 654.496 52.9533 653.749 52.82C653.002 52.66 652.296 52.58 651.629 52.58C650.242 52.58 649.096 52.8867 648.189 53.5C647.309 54.0867 646.869 54.8733 646.869 55.86C646.869 56.3933 647.016 56.9 647.309 57.38C647.602 57.86 648.029 58.2467 648.589 58.54C649.149 58.8333 649.816 58.98 650.589 58.98C651.389 58.98 652.176 58.8333 652.949 58.54C653.722 58.22 654.349 57.8333 654.829 57.38Z" fill="#F9F9F9"/>
<path d="M0 68.5024L15.6336 37.5787L0 12.6133V68.5024Z" fill="white" fill-opacity="0.5"/>
<path d="M7.0957 99L45.8724 63.3646L21.0825 74.0392L7.0957 99Z" fill="white" fill-opacity="0.8"/>
<path d="M37.6212 0L0.326172 72.0958L24.5977 59.8033L45.5894 34.4346L37.6212 0Z" fill="white" fill-opacity="0.8"/>
<path d="M24.5977 59.8033L0.326172 72.0958L21.0838 74.0392L45.8738 63.3646L24.5977 59.8033Z" fill="white" fill-opacity="0.5"/>
<path d="M66.1777 65.6791L91.9769 34.8333H67.1503V24.7866H105.152V33.3575L80.6095 64.217H105.432V74.25H66.1777V65.6791Z" fill="white" fill-opacity="0.8"/>
<path d="M122.023 74.9466C120.302 74.9619 118.593 74.6669 116.977 74.0758C115.49 73.5389 114.127 72.7098 112.967 71.6375C111.85 70.5914 110.949 69.3363 110.316 67.9433C109.657 66.4897 109.323 64.9099 109.339 63.3141C109.317 61.5955 109.712 59.8972 110.49 58.3641C111.273 56.862 112.381 55.553 113.733 54.5325C115.225 53.4161 116.9 52.5677 118.683 52.0254C120.739 51.398 122.878 51.0889 125.027 51.1087C126.523 51.106 128.017 51.2333 129.491 51.4891C130.792 51.7032 132.059 52.0901 133.257 52.6395V50.9666C133.257 46.7408 130.81 44.6279 125.917 44.6279C123.967 44.6207 122.031 44.9622 120.202 45.6362C118.182 46.4185 116.261 47.437 114.481 48.6704L111.22 41.7083C113.547 40.1714 116.082 38.9738 118.747 38.1516C121.448 37.3516 124.252 36.9562 127.069 36.9783C132.601 36.9783 136.883 38.2784 139.913 40.8787C142.944 43.479 144.455 47.2877 144.446 52.305V61.71C144.446 62.8252 144.62 63.6029 144.969 64.0429C145.205 64.2921 145.49 64.4915 145.805 64.6292C146.12 64.767 146.46 64.8403 146.803 64.845V74.25C145.932 74.4674 145.046 74.6206 144.152 74.7083C143.363 74.777 142.643 74.8137 141.991 74.8137C139.9 74.8137 138.318 74.4073 137.248 73.5945C136.157 72.7454 135.434 71.5098 135.23 70.1433L135.019 68.4704C133.47 70.4952 131.479 72.1397 129.197 73.2783C126.969 74.3868 124.512 74.9581 122.023 74.9466ZM125.303 66.9166C126.505 66.917 127.698 66.7044 128.826 66.2887C129.872 65.9309 130.835 65.3649 131.656 64.625C132.726 63.7908 133.262 62.9093 133.262 61.9804V58.497C132.233 58.1095 131.17 57.818 130.087 57.6262C129.042 57.4244 127.981 57.3185 126.917 57.31C125.133 57.235 123.37 57.7155 121.871 58.685C121.252 59.0705 120.743 59.6086 120.392 60.2474C120.041 60.8863 119.86 61.6045 119.867 62.3333C119.851 62.9653 119.981 63.5924 120.247 64.1662C120.513 64.74 120.907 65.2451 121.399 65.6425C122.504 66.5228 123.89 66.9752 125.303 66.9166Z" fill="white" fill-opacity="0.8"/>
<path d="M174.46 74.9467C171.9 75.0088 169.368 74.3954 167.121 73.1683C165.041 71.999 163.328 70.2759 162.171 68.1908V74.25H152.496V23.375H163.652V43.6654C164.808 41.6314 166.481 39.9382 168.501 38.7567C170.579 37.6421 172.892 37.0375 175.25 36.9929C177.608 36.9483 179.943 37.4649 182.061 38.5C184.003 39.4894 185.713 40.878 187.08 42.5746C188.529 44.3945 189.64 46.459 190.36 48.6704C191.16 51.0858 191.56 53.6155 191.543 56.1596C191.563 58.6903 191.126 61.2039 190.254 63.58C189.449 65.7866 188.23 67.8196 186.663 69.5704C185.146 71.2559 183.294 72.6076 181.227 73.5396C179.1 74.492 176.791 74.9721 174.46 74.9467ZM171.323 65.5417C172.507 65.5581 173.681 65.3245 174.769 64.8561C175.857 64.3878 176.833 63.6952 177.635 62.8238C178.42 61.9599 179.035 60.9552 179.447 59.8629C179.897 58.6726 180.121 57.409 180.107 56.1367C180.114 54.8681 179.903 53.6078 179.483 52.4104C179.096 51.2855 178.517 50.2359 177.772 49.3075C177.059 48.4332 176.168 47.7207 175.158 47.2175C174.141 46.7094 173.019 46.4472 171.882 46.4521C170.099 46.4647 168.378 47.1151 167.033 48.2854C165.562 49.5045 164.403 51.057 163.652 52.8137V60.4542C164.352 61.9836 165.478 63.279 166.896 64.185C168.208 65.0567 169.746 65.528 171.323 65.5417Z" fill="white" fill-opacity="0.8"/>
<path d="M214.553 74.9467C211.702 74.9944 208.87 74.474 206.223 73.4158C203.901 72.4743 201.8 71.0619 200.053 69.2679C198.382 67.5304 197.088 65.4679 196.25 63.2087C194.531 58.5542 194.531 53.4396 196.25 48.785C197.088 46.5259 198.382 44.4633 200.053 42.7258C201.805 40.9291 203.904 39.507 206.223 38.5458C208.864 37.462 211.699 36.9286 214.553 36.9783C217.398 36.9262 220.223 37.4598 222.852 38.5458C225.157 39.5143 227.245 40.9357 228.99 42.7258C230.661 44.469 231.965 46.5293 232.825 48.785C233.706 51.0879 234.154 53.5337 234.146 55.9992C234.156 58.4604 233.719 60.9031 232.857 63.2087C232.022 65.4685 230.729 67.5315 229.059 69.2679C227.31 71.0609 225.21 72.4731 222.889 73.4158C220.24 74.474 217.406 74.9944 214.553 74.9467ZM206.397 55.9992C206.397 58.8775 207.162 61.1875 208.691 62.9292C209.411 63.7724 210.311 64.4444 211.325 64.8963C212.338 65.3483 213.439 65.5687 214.549 65.5417C215.658 65.5536 216.756 65.3155 217.76 64.845C218.738 64.3818 219.605 63.7162 220.306 62.8925C221.06 61.998 221.641 60.9705 222.017 59.8629C222.444 58.6199 222.655 57.3132 222.641 55.9992C222.641 53.1147 221.876 50.8032 220.347 49.0646C219.637 48.2265 218.749 47.5571 217.748 47.1051C216.746 46.6532 215.657 46.4301 214.558 46.4521C213.451 46.4396 212.354 46.6705 211.346 47.1283C210.337 47.586 209.442 48.2596 208.723 49.1012C207.969 49.9956 207.391 51.0232 207.016 52.1308C206.589 53.3752 206.38 54.6838 206.397 55.9992Z" fill="white" fill-opacity="0.8"/>
<path d="M304.16 60.896C304.16 63.824 303.368 66.272 301.784 68.24C300.248 70.16 298.16 71.6 295.52 72.56C292.88 73.52 289.976 74 286.808 74H261.896V22.88H290.336C292.736 22.88 294.8 23.528 296.528 24.824C298.304 26.072 299.648 27.704 300.56 29.72C301.52 31.736 302 33.824 302 35.984C302 38.384 301.376 40.688 300.128 42.896C298.88 45.056 297.056 46.688 294.656 47.792C297.584 48.656 299.888 50.192 301.568 52.4C303.296 54.608 304.16 57.44 304.16 60.896ZM292.136 58.52C292.136 57.416 291.92 56.456 291.488 55.64C291.056 54.776 290.48 54.104 289.76 53.624C289.088 53.096 288.272 52.832 287.312 52.832H273.704V63.992H286.808C287.816 63.992 288.704 63.752 289.472 63.272C290.288 62.792 290.936 62.144 291.416 61.328C291.896 60.512 292.136 59.576 292.136 58.52ZM273.704 32.96V43.544H285.296C286.16 43.544 286.952 43.352 287.672 42.968C288.44 42.584 289.064 42.008 289.544 41.24C290.024 40.424 290.264 39.416 290.264 38.216C290.264 37.064 290.048 36.104 289.616 35.336C289.232 34.568 288.704 33.992 288.032 33.608C287.36 33.176 286.592 32.96 285.728 32.96H273.704ZM328.179 74.72C324.963 74.72 322.083 74.192 319.539 73.136C317.043 72.08 314.931 70.64 313.203 68.816C311.475 66.992 310.155 64.904 309.243 62.552C308.379 60.2 307.947 57.728 307.947 55.136C307.947 52.496 308.379 50 309.243 47.648C310.155 45.296 311.475 43.208 313.203 41.384C314.931 39.56 317.043 38.12 319.539 37.064C322.083 36.008 324.963 35.48 328.179 35.48C331.395 35.48 334.251 36.008 336.747 37.064C339.243 38.12 341.355 39.56 343.083 41.384C344.811 43.208 346.131 45.296 347.043 47.648C347.955 50 348.411 52.496 348.411 55.136C348.411 57.728 347.955 60.2 347.043 62.552C346.131 64.904 344.811 66.992 343.083 68.816C341.355 70.64 339.243 72.08 336.747 73.136C334.251 74.192 331.395 74.72 328.179 74.72ZM319.755 55.136C319.755 57.104 320.115 58.832 320.835 60.32C321.603 61.808 322.611 62.96 323.859 63.776C325.107 64.592 326.547 65 328.179 65C329.763 65 331.179 64.592 332.427 63.776C333.723 62.912 334.731 61.736 335.451 60.248C336.171 58.76 336.531 57.056 336.531 55.136C336.531 53.168 336.171 51.44 335.451 49.952C334.731 48.464 333.723 47.312 332.427 46.496C331.179 45.68 329.763 45.272 328.179 45.272C326.547 45.272 325.107 45.68 323.859 46.496C322.611 47.312 321.603 48.464 320.835 49.952C320.115 51.44 319.755 53.168 319.755 55.136ZM351.748 62.696C351.748 60.2 352.444 58.016 353.836 56.144C355.228 54.272 357.148 52.808 359.596 51.752C362.044 50.648 364.852 50.096 368.02 50.096C369.556 50.096 371.068 50.24 372.556 50.528C374.044 50.768 375.34 51.128 376.444 51.608V49.952C376.444 47.888 375.82 46.304 374.572 45.2C373.324 44.096 371.428 43.544 368.884 43.544C366.772 43.544 364.78 43.904 362.908 44.624C361.084 45.344 359.14 46.376 357.076 47.72L353.62 40.376C356.116 38.744 358.708 37.52 361.396 36.704C364.132 35.888 367.012 35.48 370.036 35.48C375.7 35.48 380.092 36.848 383.212 39.584C386.38 42.272 387.964 46.184 387.964 51.32V61.184C387.964 62.336 388.132 63.152 388.468 63.632C388.852 64.064 389.5 64.328 390.412 64.424V74C389.452 74.192 388.54 74.336 387.676 74.432C386.86 74.528 386.14 74.576 385.516 74.576C383.356 74.576 381.7 74.144 380.548 73.28C379.444 72.416 378.748 71.24 378.46 69.752L378.244 68.096C376.564 70.256 374.548 71.912 372.196 73.064C369.892 74.168 367.468 74.72 364.924 74.72C362.428 74.72 360.172 74.192 358.156 73.136C356.188 72.08 354.628 70.64 353.476 68.816C352.324 66.992 351.748 64.952 351.748 62.696ZM374.644 64.136C375.172 63.704 375.604 63.224 375.94 62.696C376.276 62.168 376.444 61.664 376.444 61.184V57.8C375.484 57.416 374.404 57.128 373.204 56.936C372.052 56.696 370.972 56.576 369.964 56.576C367.852 56.576 366.1 57.056 364.708 58.016C363.316 58.928 362.62 60.152 362.62 61.688C362.62 62.552 362.86 63.344 363.34 64.064C363.82 64.784 364.468 65.36 365.284 65.792C366.148 66.224 367.156 66.44 368.308 66.44C369.46 66.44 370.612 66.224 371.764 65.792C372.916 65.36 373.876 64.808 374.644 64.136ZM420.288 46.064C417.504 46.064 414.984 46.52 412.728 47.432C410.472 48.296 408.84 49.592 407.832 51.32V74H396.312V36.2H406.896V43.832C408.192 41.288 409.872 39.296 411.936 37.856C414 36.416 416.16 35.672 418.416 35.624C418.944 35.624 419.328 35.624 419.568 35.624C419.856 35.624 420.096 35.648 420.288 35.696V46.064ZM422.769 55.064C422.769 51.368 423.489 48.056 424.929 45.128C426.369 42.152 428.337 39.8 430.833 38.072C433.329 36.344 436.209 35.48 439.473 35.48C442.113 35.48 444.513 36.128 446.673 37.424C448.833 38.672 450.465 40.328 451.569 42.392V21.44H463.089V61.184C463.089 62.336 463.281 63.152 463.665 63.632C464.049 64.064 464.673 64.328 465.537 64.424V74C463.521 74.384 461.889 74.576 460.641 74.576C458.673 74.576 457.065 74.144 455.817 73.28C454.617 72.416 453.873 71.216 453.585 69.68L453.369 67.736C452.025 70.088 450.201 71.84 447.897 72.992C445.593 74.144 443.169 74.72 440.625 74.72C438.033 74.72 435.633 74.24 433.425 73.28C431.265 72.272 429.369 70.88 427.737 69.104C426.153 67.328 424.929 65.24 424.065 62.84C423.201 60.44 422.769 57.848 422.769 55.064ZM451.641 59.744V51.824C451.161 50.528 450.465 49.4 449.553 48.44C448.689 47.48 447.681 46.712 446.529 46.136C445.425 45.56 444.297 45.272 443.145 45.272C441.897 45.272 440.745 45.536 439.689 46.064C438.681 46.592 437.793 47.336 437.025 48.296C436.257 49.208 435.657 50.264 435.225 51.464C434.841 52.664 434.649 53.936 434.649 55.28C434.649 56.672 434.865 57.968 435.297 59.168C435.777 60.32 436.425 61.352 437.241 62.264C438.057 63.128 439.017 63.8 440.121 64.28C441.225 64.76 442.425 65 443.721 65C444.537 65 445.329 64.88 446.097 64.64C446.865 64.352 447.585 63.992 448.257 63.56C448.977 63.128 449.625 62.576 450.201 61.904C450.777 61.232 451.257 60.512 451.641 59.744ZM486.51 74.72C483.294 74.72 480.15 74.192 477.078 73.136C474.006 72.08 471.414 70.52 469.302 68.456L473.262 61.184C475.566 62.864 477.798 64.136 479.958 65C482.166 65.864 484.23 66.296 486.15 66.296C487.638 66.296 488.79 66.056 489.606 65.576C490.422 65.096 490.83 64.352 490.83 63.344C490.83 62.624 490.59 62.072 490.11 61.688C489.63 61.256 488.886 60.872 487.878 60.536C486.918 60.2 485.718 59.84 484.278 59.456C481.398 58.496 478.998 57.56 477.078 56.648C475.158 55.736 473.718 54.632 472.758 53.336C471.798 51.992 471.318 50.264 471.318 48.152C471.318 45.608 471.942 43.4 473.19 41.528C474.486 39.608 476.31 38.12 478.662 37.064C481.014 36.008 483.822 35.48 487.086 35.48C489.678 35.48 492.198 35.888 494.646 36.704C497.142 37.52 499.47 38.888 501.63 40.808L497.166 48.008C495.006 46.52 493.086 45.44 491.406 44.768C489.726 44.096 488.094 43.76 486.51 43.76C485.694 43.76 484.95 43.856 484.278 44.048C483.606 44.24 483.054 44.576 482.622 45.056C482.238 45.488 482.046 46.064 482.046 46.784C482.046 47.504 482.238 48.08 482.622 48.512C483.054 48.944 483.702 49.328 484.566 49.664C485.478 49.952 486.606 50.312 487.95 50.744C491.07 51.656 493.662 52.592 495.726 53.552C497.79 54.464 499.326 55.616 500.334 57.008C501.39 58.352 501.918 60.152 501.918 62.408C501.918 66.248 500.526 69.272 497.742 71.48C495.006 73.64 491.262 74.72 486.51 74.72Z" fill="white" fill-opacity="0.4"/>
</svg>
