<svg width="254" height="157" viewBox="0 0 254 157" fill="none" xmlns="http://www.w3.org/2000/svg">
<rect width="254" height="157" rx="20" fill="white" fill-opacity="0.3"/>
<path d="M79.28 87.6V105.52H119.2V112.4H71.36V87.6H79.28ZM117.44 91.92H109.6V39.44H117.44V91.92ZM79.68 66.8H79.6C79.2 68.16 76.72 70.96 74.24 73.2C70.96 76.24 66.08 80.32 61.84 83.68L57.12 78.08C62.24 74.16 67.36 69.84 70.16 67.04C74.24 62.96 75.36 59.92 75.36 54.32V42.88H83.36V54C83.36 58.96 83.68 61.6 87.52 65.12C91.28 68.56 96 72.32 100.72 75.76L96.08 81.28C92 78.16 88.08 74.88 84.24 71.68C81.84 69.68 80.16 68 79.68 66.8ZM146.013 101.6V98.4C146.013 91.04 154.093 84.72 168.653 84.72C183.213 84.72 191.293 91.04 191.293 98.4V101.6C191.293 108.96 183.213 115.28 168.653 115.28C154.093 115.28 146.013 108.96 146.013 101.6ZM153.373 68.24H153.293C152.813 69.6 150.493 72.32 147.932 74.48C144.493 77.44 140.173 80.88 135.693 84L131.053 78.32C136.173 74.72 140.893 71.12 143.773 68.32C147.693 64.48 149.053 61.44 149.053 55.76V54.4H133.133V47.6H149.053V38.88H157.053V47.6H171.933V54.4H157.053V55.44C157.053 60.4 157.693 63.12 161.213 66.32C164.973 69.76 169.133 72.8 173.852 75.92L169.373 81.68C165.213 78.8 161.773 76.16 157.933 72.96C155.533 70.96 153.933 69.44 153.373 68.24ZM190.973 83.68H183.133V66.72H169.693V59.92H183.133V39.44H190.973V83.68ZM183.533 100.96V99.04C183.533 95.36 178.173 91.2 168.653 91.2C159.133 91.2 153.773 95.36 153.773 99.04V100.96C153.773 104.64 159.133 108.8 168.653 108.8C178.173 108.8 183.533 104.64 183.533 100.96Z" fill="#F9F9F9"/>
</svg>
